PathFileType	4	(X/Y/Z)	19_coords_data.trc
DataRate	CameraRate	NumFrames	NumMarkers	Units	OrigDataRate	OrigDataStartFrame	OrigNumFrames
30.0	30.0	6	21	m	30.0	19	75
Frame#	Time	THUMB_TIP	THUMB_IP	THUMB_MCP	THUMB_CMC	INDEX_TIP	INDEX_DIP	INDEX_PIP	INDEX_MCP	MIDDLE_TIP	MIDDLE_DIP	MIDDLE_PIP	MIDDLE_MCP	RING_TIP	RING_DIP	RING_PIP	RING_MCP	PINKY_TIP	PINKY_DIP	PINKY_PIP	PINKY_MCP	WRIST
X1	Y1	Z1	X2	Y2	Z2	X3	Y3	Z3	X4	Y4	Z4	X5	Y5	Z5	X6	Y6	Z6	X7	Y7	Z7	X8	Y8	Z8	X9	Y9	Z9	X10	Y10	Z10	X11	Y11	Z11	X12	Y12	Z12	X13	Y13	Z13	X14	Y14	Z14	X15	Y15	Z15	X16	Y16	Z16	X17	Y17	Z17	X18	Y18	Z18	X19	Y19	Z19	X20	Y20	Z20	X21	Y21	Z21
17	0.5999999999999973	0.5485207986641163	-0.020145889428847652	-0.1319946443753413	0.5275400475249457	-0.01571311926618124	-0.1237388203509833	0.4988797379863561	-0.01057136152667526	-0.11274023023677027	0.4708677125450027	-0.016505587425712287	-0.07853494711190537	0.5573433501565865	0.03686930756712925	-0.15500744609883407	0.5489277972894354	0.04690650231338889	-0.14250012058272785	0.532013560098114	0.05265119109141614	-0.12481066145930261	0.5022302471114207	0.03137906335628915	-0.10303712377804572	0.5119261857786139	-0.009782272617650078	-0.11430033540463358	0.5282062268777044	-0.00576766443693888	-0.12114454339148581	0.5467638369996043	0.015325865068710587	-0.11339291971912813	0.5160206984116897	0.029224112993282536	-0.08410391059639716	0.5178050988691574	-0.018478658591406294	-0.10459075577836613	0.5342939401785779	-0.012629751861180094	-0.10893913505504649	0.5521961447920403	0.002376010510267368	-0.10030674577806295	0.5287693764244915	0.01738197567846489	-0.07096857325106219	0.6034974980389578	0.014490345593781262	-0.07178910560836388	0.5869717002697383	0.01023689447441023	-0.07044517046633489	0.5664444818027553	0.00589700919207059	-0.06966368678455652	0.5311322007659975	-0.0010550134461260186	-0.06729817622253212	0.4622830810018609	-0.023011742144276925	-0.051989820119430985
18	0.6333333333333304	0.5497889387392252	-0.018943882120547872	-0.1304560756228735	0.528637736807091	-0.014680275507955587	-0.12255365096463444	0.49966512662376106	-0.010009811388054235	-0.1121808681138505	0.47128695367525786	-0.016282613994399786	-0.07833975040821516	0.5574070767166471	0.03566261666047499	-0.1530707948771827	0.5494406393538438	0.046414142362926625	-0.14086667381853804	0.5327360088760003	0.053200765297696684	-0.1233479152226799	0.5025024159938167	0.032163947155993244	-0.10196993033384424	0.5127552695634044	-0.008705140080351836	-0.11294382049218066	0.5290104574133291	-0.004565320146214358	-0.119772492315938	0.5472853412630604	0.01672662584842821	-0.11189269498097684	0.5160109390358218	0.029975041200409946	-0.0828661695776449	0.5190473276313594	-0.017800472593242134	-0.1037371350805684	0.5354872893611169	-0.011442796675024347	-0.10751967592542713	0.5528043775783116	0.004006028485027513	-0.09848461998470123	0.5285411890363123	0.0183982605798082	-0.06952115729279632	0.6033569027644923	0.016240079659366802	-0.06965272966930253	0.5868552980022457	0.011872581086067036	-0.0683791534121333	0.5663568134173251	0.0073767044459804865	-0.06773787191474163	0.5311018104338603	1.835399613792088e-05	-0.06578264960175671	0.4622830810018609	-0.023011742144276925	-0.051989820119430985
19	0.6666666666666637	0.5511597141020177	-0.01657604629586329	-0.12888953616336205	0.5298643593525056	-0.01260624300416735	-0.12122477733364831	0.5005530167389234	-0.008788288721156556	-0.11147344823028837	0.47193120686670964	-0.015841255385587782	-0.07799304111106006	0.5578035156661233	0.03551560075631188	-0.15012852364313148	0.5500651559629505	0.046800024293176645	-0.13826346677243068	0.5333783401656507	0.05440209390944173	-0.12106554395900784	0.5025651351418805	0.03354613858714928	-0.10034812091081835	0.5141538610468833	-0.007559236602455055	-0.1119409644562494	0.530458959561301	-0.0026715272085763297	-0.11812595106222729	0.5478310289777915	0.01912408453805714	-0.10960702725820995	0.5157491246965815	0.03128458480255891	-0.08098847432469593	0.5212308010146234	-0.016719167121847178	-0.10312037822276068	0.5374922249724812	-0.009428732927944328	-0.10584354919190284	0.5535830292859214	0.006708039714106939	-0.0958001153047642	0.5280660393635672	0.01997597218610947	-0.06738240907746888	0.6030113857558914	0.018961747153081743	-0.06625136725354427	0.5865419151265191	0.014436409956319673	-0.06512094235827613	0.5661018235056359	0.009652636272039827	-0.06476013372826991	0.5309521393968066	0.0016679831647518073	-0.06348401743035353	0.4622830810018609	-0.023011742144276925	-0.051989820119430985
20	0.6999999999999968	0.5524981830747114	-0.012691846837133647	-0.12732601514699646	0.5310440960176251	-0.0093807190158256	-0.11979218603439237	0.501393117603889	-0.006864502759568958	-0.11066485702422121	0.4727782760386935	-0.015189873898005746	-0.07747195058917039	0.5583211041389827	0.03699342928199545	-0.14619464587369654	0.5505085799025347	0.04859338316033246	-0.13468788546620702	0.5335794291570111	0.056624659773679586	-0.11792744740524799	0.5023087744888123	0.03548570544592422	-0.09820621872772048	0.516483756741016	-0.006022182186827707	-0.11122979813871298	0.5327368621476896	0.00017372490052802725	-0.11627432983198346	0.5483157951413576	0.022760776469426425	-0.10644928539428594	0.5150947072623879	0.033186796582503786	-0.07845276157900696	0.5242200675008415	-0.014663376490970714	-0.10243490730971874	0.5401313838790165	-0.006275130430501652	-0.10364624505892225	0.5543393651500106	0.010624200046150278	-0.09212557334916549	0.5271825334807203	0.02219755339726026	-0.06449796361006208	0.6022424306959928	0.02291390810562033	-0.0614230971044695	0.5858277523612552	0.018141592207223445	-0.06053803431968907	0.5654976698675616	0.012898050754533652	-0.06060901201714006	0.5305758633716666	0.0038831874276452627	-0.06032070443693956	0.4622830810018609	-0.023011742144276925	-0.051989820119430985
21	0.7333333333333302	0.553690239487831	-0.007430342943062218	-0.12571499755609794	0.5321314814276871	-0.005224460061426406	-0.11807601649729922	0.5021790497919343	-0.004301964142662595	-0.10966050460642636	0.47378373927049056	-0.014368459967877834	-0.07676275389012796	0.5591953022276777	0.03995280829810077	-0.1412256871104947	0.5509157109561313	0.051587167010755386	-0.13008611504863282	0.5334257564245066	0.05961223977341212	-0.11390867610930237	0.5017558668001085	0.03786422938124678	-0.09553265289532269	0.5200582999747362	-0.0038919066903473354	-0.11030441140414447	0.5359534851756752	0.004038560067534669	-0.11383297831295823	0.5487755930133679	0.0275023459114635	-0.10223755445400311	0.5140220949984465	0.03552010548692641	-0.07532923179879215	0.528679421725656	-0.011994005538550012	-0.10173940349588824	0.5435941242819777	-0.0019074923717813386	-0.1008372395456797	0.5550565518223896	0.015627286538719254	-0.0873715697724871	0.5258470124239845	0.024853067915545757	-0.06098201501837984	0.6008864117266415	0.027722351759126407	-0.055158243011108665	0.5845569996567113	0.02261737475352321	-0.05462018054012811	0.5643895312723446	0.016814674256996787	-0.055263534962809696	0.529815154386091	0.006602084940348196	-0.056358493124920014	0.4622830810018609	-0.023011742144276925	-0.051989820119430985
22	0.7666666666666633	0.5545597072732715	-0.0010937779272087722	-0.12402331129019069	0.5329828605459794	-0.00029304466932678075	-0.11616210835700909	0.502844673585014	-0.0013360711380616674	-0.10845355580212505	0.4748920671106974	-0.013401359835336857	-0.0758503259016473	0.5605278730521208	0.04428821779066194	-0.13517619758806387	0.551341431927378	0.055603810258610165	-0.1244260037962782	0.5329566350597867	0.0631348169854169	-0.10902168573872693	0.5009570099228793	0.040505930474656004	-0.09236054591035624	0.5249194958331052	-0.0007318989392294251	-0.10883762920482613	0.5399938378061295	0.009169499059714648	-0.1104888504943015	0.5490552378143023	0.03330070338134006	-0.09688791089882272	0.5125036757759236	0.03813443718082632	-0.07165368312957528	0.5346626349013627	-0.008090055571282395	-0.10064031662082588	0.5478115554220434	0.0037031305155187377	-0.09703107140015922	0.5555358882160568	0.021529493492074447	-0.08145110205117097	0.5240264120172886	0.02774282797381855	-0.05688958299600584	0.5987954380789827	0.03301214660198715	-0.04762868669918055	0.5825683077551234	0.027565398706387856	-0.04751388768234922	0.5626387292523789	0.021100518474018615	-0.04886638288902104	0.5285797315455211	0.009565731864429439	-0.05166224126803433	0.4622830810018609	-0.023011742144276925	-0.051989820119430985
